# xmcd
#
# Track frame offsets: 
#        155
#        17355
#        34781
#        49615
#        65926
#        83038
#        102604
#        114889
#        134294
#        155577
#        172044
#        192668
#
# Disc length: 2760 seconds
#
# Revision: 0
# Processed by: cddbd v1.5.2PL0 Copyright (c) Steve Scherf et al.
# Submitted via: ExactAudioCopy v0.95b3
#
DISCID=a20ac60c
DTITLE=Mickie James - Somebody's Gonna Pay
DYEAR=2013
DGENRE=Country
TTITLE0=Somebody's Gonna Pay
TTITLE1=Best Damn Night
TTITLE2=Whatever Turns You On
TTITLE3=A Good Time
TTITLE4=Long Way Down
TTITLE5=If I Can't Be Me
TTITLE6=Goin' Fast
TTITLE7=I'm Gone Song
TTITLE8=80 Proof
TTITLE9=Hurts Don't It
TTITLE10=I Just Wanna Do My Thing
TTITLE11=Hardcore Country  (Bonus Track)
EXTD=
EXTT0=
EXTT1=
EXTT2=
EXTT3=
EXTT4=
EXTT5=
EXTT6=
EXTT7=
EXTT8=
EXTT9=
EXTT10=
EXTT11=
PLAYORDER=
